:SAMPLES-PER-SECOND 30
:FULLY-SPECIFIED
:DEGREES
31
root  67.0407 39.3434 8.62577 -174.276 -73.2412 168.782
RightUpLeg  -12.3268 -7.85063 -11.0609
RightLeg  39.0236 -10.5356 -9.2301
RightFoot  -2.20543 -0.46895 5.64547
RightToes  -1.16417e-010 0 -3.6325e-017
Spine  9.11191 2.32692 -4.09942
Spine1  10.9011 1.36184 2.00878
HEad  2.5997 -25.7234 13.3225
LeftShoulder1  6.90648 -9.98182 -44.5943
LeftArm  -14.3437 26.4664 -39.9501
LeftForeArm  41.7713 -4.07546 -3.54115
LeftHand  -0.244104 0.0205437 5.32207
RightShoulder  6.24595 9.16829 42.9498
RightArm  -36.5365 -8.40897 29.6015
RightForeArm  -50.0751 50.5663 16.3112
RightHand  -3.98213 12.2276 -26.1335
LeftUpLeg  4.5594 7.67888 -4.36091
LeftLeg  13.7457 19.2992 -0.682738
LeftFoot  -16.9645 0.0895219 -0.249163
LeftToes  4.18335e-011 -7.14095e-012 4.81992e-012
32
root  66.7193 39.335 8.81485 -174.842 -73.6062 169.59
RightUpLeg  -15.3287 -9.19009 -9.41467
RightLeg  41.3228 -8.09875 -7.84237
RightFoot  -1.22063 -0.420208 4.63048
RightToes  -1.16417e-010 0 -3.6325e-017
Spine  9.86981 1.95185 -4.58648
Spine1  10.4746 0.776373 2.53447
HEad  2.18686 -26.1867 14.2335
LeftShoulder1  7.22147 -10.5661 -44.7017
LeftArm  -12.5218 24.9882 -37.7321
LeftForeArm  45.3609 -4.23353 -3.95431
LeftHand  -0.244104 0.0205437 5.32207
RightShoulder  6.10838 9.04256 42.3896
RightArm  -36.7946 -7.27199 29.3197
RightForeArm  -48.1271 53.6203 18.0848
RightHand  -4.04931 12.3308 -26.4051
LeftUpLeg  4.98004 7.13822 -4.49246
LeftLeg  13.3196 19.5773 -0.910784
LeftFoot  -17.3206 0.0933415 -0.202633
LeftToes  4.18335e-011 -7.14095e-012 4.81992e-012
33
root  66.3216 39.3354 8.95673 -175.951 -74.1696 171.392
RightUpLeg  -17.6428 -10.6593 -7.00432
RightLeg  40.3333 -4.80879 -4.65665
RightFoot  -1.63061 -0.520503 6.00691
RightToes  -1.16417e-010 0 -3.6325e-017
Spine  10.6603 1.58479 -5.10898
Spine1  9.23024 0.106242 3.42078
HEad  1.97039 -26.874 15.0208
LeftShoulder1  7.34963 -10.8766 -44.5054
LeftArm  -11.9709 23.419 -35.9133
LeftForeArm  45.565 -4.71873 -4.04871
LeftHand  -0.244104 0.0205437 5.32207
RightShoulder  5.82724 8.66481 41.6442
RightArm  -37.1598 -6.51513 28.9739
RightForeArm  -45.8466 56.7537 20.2285
RightHand  -4.05668 12.2712 -26.5355
LeftUpLeg  5.06851 6.50846 -4.29705
LeftLeg  12.9826 19.9157 -1.09902
LeftFoot  -17.8714 0.0955449 -0.202965
LeftToes  4.18335e-011 -7.14095e-012 4.81992e-012
34
root  65.8464 39.353 9.07215 -177.904 -74.7286 174.318
RightUpLeg  -19.401 -12.724 -3.90972
RightLeg  37.3505 -4.02214 -3.52678
RightFoot  -2.43669 -0.638216 7.96774
RightToes  -1.16417e-010 0 -3.6325e-017
Spine  11.4753 1.19261 -5.50652
Spine1  7.55894 -0.624545 4.6534
HEad  1.58458 -27.6906 15.8225
LeftShoulder1  7.35319 -10.9528 -44.2831
LeftArm  -12.5311 21.6489 -34.4453
LeftForeArm  41.3346 -5.31426 -3.92639
LeftHand  -0.244104 0.0205437 5.32207
RightShoulder  5.53559 8.28488 40.7716
RightArm  -37.2311 -5.99781 28.4773
RightForeArm  -43.6886 59.581 22.5465
RightHand  -4.12997 12.316 -26.9246
LeftUpLeg  5.03909 5.99369 -3.80957
LeftLeg  12.5761 19.9966 -1.28472
LeftFoot  -18.2834 0.0907186 -0.312837
LeftToes  4.18335e-011 -7.14095e-012 4.81992e-012
35
root  65.2865 39.4008 9.18326 179.437 -75.0997 178.107
RightUpLeg  -20.758 -15.4807 -0.221409
RightLeg  33.3051 -5.28313 -3.96656
RightFoot  -3.51491 -0.565383 7.86806
RightToes  -1.16417e-010 0 -3.6325e-017
Spine  11.9431 0.751293 -5.50169
Spine1  6.25427 -1.33046 5.95129
HEad  0.895573 -28.4627 16.6811
LeftShoulder1  7.30261 -10.9488 -43.9759
LeftArm  -13.3426 19.5704 -33.2072
LeftForeArm  36.1807 -6.5234 -3.87432
LeftHand  -0.244104 0.0205437 5.32207
RightShoulder  5.33199 8.07881 39.9005
RightArm  -37.0495 -5.51291 27.8102
RightForeArm  -41.8179 61.784 24.6917
RightHand  -4.2805 12.5442 -27.5206
LeftUpLeg  5.20572 5.49949 -3.24636
LeftLeg  11.6244 19.9968 -1.53818
LeftFoot  -18.3719 0.0937942 -0.266975
LeftToes  4.18335e-011 -7.14095e-012 4.81992e-012
36
root  64.6365 39.4299 9.29085 176.851 -75.1601 -178.092
RightUpLeg  -21.8544 -18.0389 3.60648
RightLeg  28.7714 -5.43146 -3.47247
RightFoot  -4.6298 -0.414205 6.53101
RightToes  -1.16417e-010 0 -3.6325e-017
Spine  11.8874 0.305207 -5.05731
Spine1  5.57871 -1.89884 6.82593
HEad  -0.0474887 -29.0673 17.6696
LeftShoulder1  7.2413 -10.9837 -43.4768
LeftArm  -14.0212 17.2538 -32.1085
LeftForeArm  33.6516 -8.66051 -3.90128
LeftHand  -0.244104 0.0205437 5.32207
RightShoulder  5.23075 8.02217 39.2799
RightArm  -36.9358 -4.9423 27.0701
RightForeArm  -40.2387 63.3107 26.4011
RightHand  -4.34961 12.6146 -27.8387
LeftUpLeg  5.52925 5.15244 -2.78309
LeftLeg  10.4534 20.3717 -1.76792
LeftFoot  -18.6578 0.114273 0.033253
LeftToes  4.18335e-011 -7.14095e-012 4.81992e-012
